<?xml version="1.0" encoding="UTF-8" standalone="no"?>
<svg
   xmlns:svg="http://www.w3.org/2000/svg"
   xmlns="http://www.w3.org/2000/svg"
   version="1.1"
   xml:space="preserve"
   width="120"
   height="120"
   viewBox="0 0 120 120"
   ><path
     d="m 6.7772863,42.2527 0.029107,0.02911 a 26.079903,26.080942 0 0 0 0.1423033,35.295583 l -0.033958,0.03396 35.4801394,35.47508 0.02102,-0.021 a 26.079903,26.080942 0 0 0 35.289329,0.11805 l 0.04205,0.042 35.476913,-35.478316 -0.0291,-0.02911 a 26.079903,26.080942 0 0 0 -0.14231,-35.292403 l 0.0356,-0.03558 -35.476915,-35.4783186 -0.02425,0.02425 A 26.079903,26.080942 0 0 0 42.296273,6.8164103 L 42.257463,6.777594 41.549185,7.4858981 57.014846,22.952175 c 3.595053,-1.213814 7.717833,-0.397226 10.582108,2.467749 2.881544,2.882831 3.689658,7.039577 2.44501,10.647216 l 14.906149,14.906765 c 3.607493,-1.243528 7.766862,-0.438888 10.648407,2.446724 4.024916,4.023904 4.024914,10.54635 0,14.573619 -4.027841,4.027417 -10.54991,4.027417 -14.579505,0 -3.02719,-3.030208 -3.774672,-7.478214 -2.239643,-11.20836 l -13.905188,-13.905742 0,36.589291 c 0.980469,0.485937 1.907194,1.133387 2.724764,1.948648 4.024913,4.024635 4.024913,10.546069 0,14.576851 -4.024915,4.023324 -10.551051,4.023324 -14.573038,0 -4.024869,-4.030825 -4.024915,-10.552216 0,-14.576851 0.994812,-0.993681 2.145691,-1.74623 3.374825,-2.249435 l 0,-36.925655 C 55.169571,41.739792 54.021473,40.994123 53.02388,39.993564 49.975482,36.94607 49.241542,32.469711 50.80526,28.725369 L 35.556286,13.475787 6.7772863,42.2527 Z"
     style="fill:#000000;fill-opacity:1;fill-rule:nonzero;stroke:none"
      /></svg>